<?xml version="1.0" standalone="no"?>
<!DOCTYPE svg PUBLIC "-//W3C//DTD SVG 20010904//EN"
 "http://www.w3.org/TR/2001/REC-SVG-20010904/DTD/svg10.dtd">
<svg version="1.0" xmlns="http://www.w3.org/2000/svg"
 width="700.000000pt" height="700.000000pt" viewBox="0 0 700.000000 700.000000"
 preserveAspectRatio="xMidYMid meet">
<metadata>
Created by potrace 1.11, written by Peter Selinger 2001-2013
</metadata>
<g transform="translate(0.000000,700.000000) scale(0.100000,-0.100000)"
fill="#000000" stroke="none">
<path d="M3265 6844 c-510 -50 -875 -151 -1266 -351 l-134 -68 -907 -5 -906
-5 -26 -24 -26 -24 0 -2289 0 -2289 25 -24 24 -25 299 0 298 0 77 -114 c43
-63 116 -163 164 -223 107 -134 375 -403 508 -510 448 -359 983 -602 1525
-692 241 -41 304 -46 580 -46 276 0 339 5 580 46 528 88 1094 342 1497 670 39
33 74 59 77 59 3 0 6 -39 6 -88 0 -137 -9 -132 225 -132 163 0 196 3 209 16
13 12 16 39 16 122 0 65 5 117 13 132 16 32 110 79 161 79 36 1 47 -6 122 -79
63 -62 88 -80 110 -80 23 0 53 25 161 133 93 93 133 140 133 156 0 15 -29 53
-85 111 -51 53 -85 97 -85 109 0 11 12 50 26 86 35 87 51 95 192 95 93 0 111
3 125 18 16 17 17 197 17 2389 l0 2370 -26 24 -26 24 -906 5 -907 5 -134 68
c-342 175 -663 273 -1087 333 -104 14 -558 27 -649 18z m3385 -2726 l0 -1502
-54 53 c-75 75 -87 73 -190 -28 -96 -93 -108 -97 -206 -54 -81 35 -90 53 -90
186 0 149 12 141 -214 145 l-186 3 -25 -25 c-24 -24 -25 -31 -25 -135 0 -129
-9 -147 -98 -181 -84 -32 -95 -29 -181 54 -96 92 -112 101 -148 82 -16 -8 -75
-62 -133 -120 l-105 -106 -2310 0 c-1784 0 -2314 3 -2323 12 -9 9 -12 370 -12
1565 l0 1553 3150 0 3150 0 0 -1502z"/>
<path d="M1298 5364 c-10 -3 -18 -13 -18 -22 0 -9 60 -76 132 -149 l133 -133
-135 -135 -135 -135 -136 136 c-93 93 -142 135 -152 131 -20 -7 -32 -100 -23
-173 13 -112 91 -235 192 -304 90 -63 223 -85 345 -59 l52 11 199 -200 200
-199 -17 -26 c-11 -17 -16 -42 -14 -76 4 -68 -9 -81 -81 -81 -47 0 -64 -5 -96
-29 -66 -49 -662 -654 -673 -684 -15 -39 -14 -83 3 -115 8 -15 59 -70 113
-124 76 -74 107 -98 135 -103 71 -13 101 10 455 366 286 288 332 339 338 371
4 21 4 50 1 64 -11 42 18 66 70 58 30 -4 52 -1 79 12 l37 17 199 -199 c159
-158 199 -203 194 -219 -33 -114 -26 -221 20 -323 34 -73 125 -166 199 -202
67 -32 174 -53 227 -44 71 12 79 15 79 32 0 9 -60 76 -132 149 l-133 133 135
135 135 135 136 -136 c93 -93 142 -135 152 -131 22 8 32 108 19 185 -42 247
-290 411 -529 349 l-51 -14 -256 256 -256 256 374 374 c361 361 378 376 463
420 l88 46 42 80 c69 131 69 129 22 180 -23 24 -49 47 -59 50 -10 3 -59 -15
-116 -42 l-99 -48 -47 -90 c-45 -87 -59 -102 -422 -465 l-376 -375 -256 256
-256 256 13 39 c7 22 13 75 13 119 -2 171 -95 314 -253 388 -57 27 -78 32
-161 34 -52 1 -103 -1 -112 -3z"/>
<path d="M4022 5155 c-17 -14 -33 -39 -37 -55 -8 -38 18 -94 51 -109 18 -8
281 -11 954 -11 l930 0 31 28 c24 22 31 36 31 65 0 45 -24 84 -58 97 -15 6
-386 10 -949 10 l-923 0 -30 -25z"/>
<path d="M4052 4839 c-35 -10 -72 -59 -72 -94 0 -38 37 -83 77 -95 27 -8 305
-10 948 -8 981 3 937 1 966 54 15 29 15 69 0 98 -29 53 15 51 -971 53 -560 1
-928 -2 -948 -8z"/>
<path d="M4022 4485 c-17 -14 -33 -39 -37 -55 -8 -38 18 -94 51 -109 18 -8
281 -11 955 -11 l931 0 29 29 c38 39 40 97 5 138 l-24 28 -940 3 -940 2 -30
-25z"/>
<path d="M4031 3936 c-63 -35 -67 -120 -7 -168 20 -16 86 -18 962 -18 l941 0
27 26 c41 42 39 106 -4 147 l-30 27 -933 0 c-754 -1 -937 -3 -956 -14z"/>
<path d="M4040 3602 c-65 -32 -79 -101 -31 -154 l29 -33 926 -3 c799 -2 931 0
961 12 78 33 80 141 5 178 -33 17 -99 18 -945 18 -846 0 -912 -1 -945 -18z"/>
<path d="M4031 3266 c-63 -35 -67 -120 -7 -168 19 -16 61 -18 506 -18 529 0
509 -2 539 57 24 46 2 110 -44 131 -40 18 -961 16 -994 -2z"/>
</g>
</svg>
